<?xml version="1.0" encoding="UTF-8" standalone="no"?>
<svg
   xmlns:dc="http://purl.org/dc/elements/1.1/"
   xmlns:cc="http://creativecommons.org/ns#"
   xmlns:rdf="http://www.w3.org/1999/02/22-rdf-syntax-ns#"
   xmlns:svg="http://www.w3.org/2000/svg"
   xmlns="http://www.w3.org/2000/svg"
   viewBox="0 0 341.33334 341.33334"
   height="341.33334"
   width="341.33334"
   xml:space="preserve"
   id="svg2"
   version="1.1"><metadata
     id="metadata8"><rdf:RDF><cc:Work
         rdf:about=""><dc:format>image/svg+xml</dc:format><dc:type
           rdf:resource="http://purl.org/dc/dcmitype/StillImage" /></cc:Work></rdf:RDF></metadata><defs
     id="defs6"><clipPath
       id="clipPath20"
       clipPathUnits="userSpaceOnUse"><path
         id="path18"
         d="M 0,0 H 256 V 256 H 0 Z" /></clipPath></defs><g
     transform="matrix(1.3333333,0,0,-1.3333333,0,341.33333)"
     id="g10"><g
       id="g12" /><g
       id="g14"><g
         clip-path="url(#clipPath20)"
         id="g16"><path
           id="path22"
           style="fill:#ffffff;fill-opacity:1;fill-rule:nonzero;stroke:none"
           d="M 0,0 H 256 V 256 H 0 Z" /><path
           id="path24"
           style="fill:#ffffff;fill-opacity:1;fill-rule:nonzero;stroke:none"
           d="m 216.3883,216.3883 c 48.8156,-48.8155 48.8156,-127.96111 0,-176.77665 -48.8155,-48.815534 -127.96111,-48.815534 -176.77665,0 -48.815534,48.81554 -48.815534,127.96115 0,176.77665 48.81554,48.8156 127.96115,48.8156 176.77665,0 z" /><g
           transform="matrix(1,0,0,-1,3,253)"
           id="g26"><path
             id="path28"
             style="fill:none;stroke:#000000;stroke-width:5;stroke-linecap:butt;stroke-linejoin:miter;stroke-miterlimit:4;stroke-dasharray:none;stroke-opacity:1"
             d="m 213.3883,36.61165 c 48.8156,48.81554 48.8156,127.96115 0,176.77665 -48.8155,48.8156 -127.96111,48.8156 -176.77665,0 -48.81553,-48.8155 -48.81553,-127.96111 0,-176.77665 48.81554,-48.81553 127.96115,-48.81553 176.77665,0 z" /></g><g
           transform="translate(25.21289,149.6484)"
           id="g30"><text
             id="text34"
             style="font-variant:normal;font-weight:bold;font-size:80px;font-family:Helvetica;-inkscape-font-specification:Helvetica-Bold;writing-mode:lr-tb;fill:#6955e2;fill-opacity:1;fill-rule:nonzero;stroke:none"
             transform="scale(1,-1)"><tspan
               id="tspan32"
               y="0"
               x="0 57.776001 80.031998 137.808">AIDX</tspan></text>
</g><g
           transform="translate(45.29297,48.89844)"
           id="g36"><text
             id="text40"
             style="font-variant:normal;font-weight:bold;font-size:80px;font-family:Helvetica;-inkscape-font-specification:Helvetica-Bold;writing-mode:lr-tb;fill:#6955e2;fill-opacity:1;fill-rule:nonzero;stroke:none"
             transform="scale(1,-1)"><tspan
               id="tspan38"
               y="0"
               x="0 48.863998 106.608">LAB</tspan></text>
</g></g></g></g></svg>